# xmcd
#
# Track frame offsets:
#	150
#	17579
#	41594
#	64058
#	86054
#	104251
#	117744
#	137399
#	150946
#	170597
#	188666
#	205860
#	225358
#	243368
#
# Disc length: 3481 seconds
#
# Revision: 1
# Processed by: cddbd v1.5.2PL0 Copyright (c) Steve Scherf et al.
# Submitted via: EasyCDDAExtractor 15.3.0.1
#
DISCID=ac0d970e
DTITLE=Lucero - Mis Favoritas
DYEAR=2010
DGENRE=Latin
TTITLE0=Tuya (Do You Wanna Be Mine)
TTITLE1=Dejar De Querer
TTITLE2=Matame
TTITLE3=Bailar
TTITLE4=No Puedo Mas (Don't Waste My Time)
TTITLE5=Si Nos Dejan (Duo Con Jose Alfredo Jimenez)
TTITLE6=Prisionera
TTITLE7=Mi Destino Eres Tu (Quiero Amor (From You))
TTITLE8=Que Alguien Me Diga
TTITLE9=Tu Eres Mi Destino (You Are My Destiny) (Duo Con Paul Anka)
TTITLE10=Me Gusta
TTITLE11=Lo Siento (Duo Con Huey Dunbar)
TTITLE12=Cada Latido
TTITLE13=Lo He Intentado Todo
EXTD=
EXTT0=
EXTT1=
EXTT2=
EXTT3=
EXTT4=
EXTT5=
EXTT6=
EXTT7=
EXTT8=
EXTT9=
EXTT10=
EXTT11=
EXTT12=
EXTT13=
PLAYORDER=
